<svg width="1016" height="785" viewBox="0 0 1016 785" fill="none" xmlns="http://www.w3.org/2000/svg">
<path fill-rule="evenodd" clip-rule="evenodd" d="M1016 0H0V785H1016V0ZM498.4 741.207C503.799 746.264 512.195 746.264 517.595 741.207L579.24 683.459C583.264 679.688 589.118 678.627 594.208 680.734L682.673 717.383C689.995 720.417 698.377 716.786 701.179 709.369L725.918 643.832C728.144 637.925 734.041 634.237 740.324 634.807L837.29 643.628C846.473 644.471 853.957 636.366 852.398 627.27L842.085 567.057C840.801 559.562 845.715 552.405 853.163 550.909L939.711 533.554C949.954 531.503 954.447 519.38 948.023 511.142L909.376 461.583C904.104 454.819 906.069 444.951 913.525 440.723L977.881 404.228C987.373 398.848 987.373 385.166 977.881 379.786L913.525 343.292C906.062 339.063 904.104 329.195 909.376 322.431L948.023 272.873C954.447 264.634 949.954 252.511 939.711 250.46L853.163 233.104C845.715 231.609 840.801 224.452 842.085 216.958L852.398 156.744C853.957 147.648 846.473 139.543 837.29 140.379L740.324 149.201C734.041 149.77 728.15 146.082 725.918 140.175L701.179 74.6377C698.377 67.2207 689.995 63.5898 682.673 66.624L594.208 103.273C589.118 105.38 583.264 104.32 579.24 100.548L517.595 42.793C512.196 37.7358 503.799 37.7358 498.4 42.793L436.754 100.548C432.731 104.32 426.876 105.38 421.787 103.273L333.322 66.624C326 63.5898 317.618 67.2139 314.816 74.6377L290.077 140.175C287.844 146.082 281.954 149.77 275.67 149.201L178.697 140.379C169.515 139.55 162.031 147.648 163.589 156.744L173.902 216.958C175.187 224.452 170.273 231.608 162.824 233.104L76.2764 250.46C66.0337 252.511 61.5405 264.634 67.9644 272.873L106.619 322.431C111.891 329.195 109.925 339.063 102.47 343.291L38.1133 379.786C28.6289 385.166 28.6289 398.848 38.1133 404.228L102.47 440.723C109.925 444.951 111.891 454.819 106.619 461.583L67.9644 511.142C61.5405 519.38 66.0337 531.503 76.2764 533.554L162.824 550.909C170.273 552.405 175.187 559.562 173.902 567.057L163.589 627.27C162.031 636.358 169.515 644.464 178.697 643.628L275.67 634.807C281.954 634.23 287.844 637.925 290.076 643.832L314.816 709.369C317.618 716.786 326 720.417 333.322 717.383L421.787 680.734C426.876 678.627 432.731 679.688 436.754 683.459L498.4 741.207Z" fill="#FFFAF3"/>
</svg>
