<svg width="28" height="28" viewBox="0 0 28 28" fill="none" xmlns="http://www.w3.org/2000/svg">
<path d="M27.9999 15.1144C28.0091 16.0471 27.4464 16.8478 26.5656 17.1543L19.5753 19.5919L17.1064 26.5705C16.8001 27.4398 16.0113 28 15.091 28H15.07C14.1405 27.9908 13.3517 27.4147 13.0598 26.5322L7.77218 10.5419C7.51845 9.77298 7.71434 8.93929 8.28227 8.36458C8.85546 7.78591 9.69291 7.58375 10.4686 7.83742L26.526 13.1022C27.4121 13.3916 27.9907 14.1816 27.9999 15.1144ZM4.17141 2.65957C3.75859 2.24869 3.09207 2.25133 2.6845 2.66617C2.27566 3.08104 2.27828 3.75086 2.69108 4.16177L4.64074 6.10261C4.84583 6.30739 5.1127 6.40912 5.3809 6.40912C5.65172 6.40912 5.92255 6.30475 6.12765 6.096C6.5365 5.68113 6.53387 5.01263 6.12107 4.60172L4.17141 2.65957ZM9.15546 4.85935C9.73656 4.85935 10.2072 4.38637 10.2072 3.80239V1.05695C10.2072 0.472974 9.73656 0 9.15546 0C8.57436 0 8.10372 0.472974 8.10372 1.05695V3.80239C8.10372 4.38637 8.57436 4.85935 9.15546 4.85935ZM13.0073 5.94935C13.2742 5.94935 13.5424 5.84761 13.7475 5.64283L15.6972 3.70199C16.11 3.29112 16.1126 2.62258 15.7037 2.20771C15.2949 1.79153 14.6283 1.79021 14.2168 2.20111L12.2672 4.14194C11.8543 4.55282 11.8517 5.22136 12.2606 5.63622C12.4657 5.84497 12.7365 5.94935 13.0073 5.94935ZM4.86034 9.1268C4.86034 8.54282 4.3897 8.06985 3.8086 8.06985H1.05174C0.47064 8.06985 0 8.54282 0 9.1268C0 9.71078 0.47064 10.1838 1.05174 10.1838H3.8086C4.3897 10.1838 4.86034 9.71078 4.86034 9.1268ZM4.16357 12.2118L2.2139 14.1539C1.80108 14.5648 1.79845 15.2347 2.20732 15.6482C2.41373 15.857 2.68325 15.9613 2.95407 15.9613C3.22227 15.9613 3.48913 15.8596 3.69423 15.6548L5.6439 13.7127C6.05671 13.3018 6.05934 12.6333 5.65047 12.2184C5.24162 11.8022 4.57507 11.7996 4.16357 12.2118Z" fill="#FFFAF3"/>
</svg>
